# xmcd CD database file
#
# Track frame offsets:
#	180
#	14058
#	28391
#	40723
#	55645
#	70031
#	84227
#	95840
#	108435
#	121198
#	153596
#	168981
#	178480
#	189118
#	204585
#	217070
#	231685
#	245120
#	258548
#	273512
#
# Disc length: 3829 seconds
#
# Revision: 0
# Processed by: cddbd v1.5.2PL0 Copyright (c) Steve Scherf et al.
# Submitted via: CDex 1.51
#
DISCID=2b0ef314
DTITLE=Jazz - Jazz
DYEAR=2005
DGENRE=Jazz
TTITLE0=Count Basie - It's the same old south
TTITLE1=Artie Shaw - What is there to say
TTITLE2=Count Basie - All or nothing at all
TTITLE3=Glenn Miller - Moonlight cocktail
TTITLE4=Louis Armstrong - When it's sleepy time down south
TTITLE5=Artie Shaw - Rockin' chair
TTITLE6=Glenn Miller - On the old assembly line
TTITLE7=Artie Shaw and his orchestra - The gentle grifter
TTITLE8=Django Reinhardt - Minor swing
TTITLE9=Louis Armstrong - Steak face
TTITLE10=Charlie Parker - An oscar for Treadwell
TTITLE11=Peggy Lee - Show me the way to get out of this world
TTITLE12=Nat King Cole - Paint yourself a rainbow
TTITLE13=Charlie Parker - My melancholy baby
TTITLE14=Les Brown - You're a sweetheart
TTITLE15=Les Brown - Over the rainbow
TTITLE16=Peggy Lee - Just one of those things
TTITLE17=Nat King Cole - Funny (not much)
TTITLE18=Peggy Lee - Sans souci
TTITLE19=Les Brown - Heat wave
EXTD=YEAR: 2005
EXTT0=
EXTT1=
EXTT2=
EXTT3=
EXTT4=
EXTT5=
EXTT6=
EXTT7=
EXTT8=
EXTT9=
EXTT10=
EXTT11=
EXTT12=
EXTT13=
EXTT14=
EXTT15=
EXTT16=
EXTT17=
EXTT18=
EXTT19=
PLAYORDER=
